<?xml version="1.0" encoding="iso-8859-1"?>
<!-- Generator: Adobe Illustrator 19.0.0, SVG Export Plug-In . SVG Version: 6.00 Build 0)  -->
<svg version="1.1" id="Layer_1" xmlns="http://www.w3.org/2000/svg" xmlns:xlink="http://www.w3.org/1999/xlink" x="0px" y="0px"
	 viewBox="0 0 289.423 289.423" style="enable-background:new 0 0 289.423 289.423;" xml:space="preserve">
<g>
	<g>
		<g>
			<path d="M228.538,122.373h-2.605V85.429c0-5.82-4.719-10.538-10.538-10.538H88.046H81.66H26.271
				c-5.82,0-10.538,4.719-10.538,10.538c0,5.82,4.719,10.538,10.538,10.538H81.66h6.386h116.81v132.051
				c0,22.27-18.058,40.328-40.328,40.328H77.813c-22.27,0-40.322-18.052-40.322-40.323V124.155c0-5.82-4.719-10.538-10.538-10.538
				c-5.819,0-10.538,4.719-10.538,10.538v103.863c0,33.909,27.49,61.405,61.405,61.405h86.721c33.909,0,61.405-27.49,61.405-61.405
				v-14.522h2.605c24.896,0,45.139-20.248,45.139-45.139v-0.839C273.682,142.622,253.434,122.373,228.538,122.373z M252.6,168.357
				c0,13.268-10.794,24.063-24.063,24.063h-2.605v-48.965h2.605c13.268,0,24.063,10.794,24.063,24.063V168.357z"/>
			<path d="M120.381,52.517c5.82,0,10.538-4.719,10.538-10.538V10.538C130.919,4.719,126.2,0,120.381,0
				c-5.82,0-10.538,4.719-10.538,10.538v31.441C109.842,47.798,114.561,52.517,120.381,52.517z"/>
			<path d="M185.507,52.517c5.82,0,10.538-4.719,10.538-10.538V19.48c0-5.82-4.719-10.538-10.538-10.538
				c-5.82,0-10.538,4.719-10.538,10.538v22.499C174.969,47.798,179.687,52.517,185.507,52.517z"/>
			<path d="M57.167,52.517c5.82,0,10.538-4.719,10.538-10.538V19.48c0-5.82-4.719-10.538-10.538-10.538
				c-5.819,0-10.538,4.713-10.538,10.538v22.499C46.629,47.798,51.347,52.517,57.167,52.517z"/>
		</g>
	</g>
</g>
<g>
</g>
<g>
</g>
<g>
</g>
<g>
</g>
<g>
</g>
<g>
</g>
<g>
</g>
<g>
</g>
<g>
</g>
<g>
</g>
<g>
</g>
<g>
</g>
<g>
</g>
<g>
</g>
<g>
</g>
</svg>
