<?xml version='1.0' encoding='iso-8859-1'?>
<!DOCTYPE svg PUBLIC '-//W3C//DTD SVG 1.1//EN' 'http://www.w3.org/Graphics/SVG/1.1/DTD/svg11.dtd'>
<svg version="1.1" xmlns="http://www.w3.org/2000/svg" viewBox="0 0 196.209 196.209" xmlns:xlink="http://www.w3.org/1999/xlink" enable-background="new 0 0 196.209 196.209">
  <g>
    <path d="m98.104,92.035c-18.517,0-33.582,15.065-33.582,33.582 0,18.52 15.065,33.586 33.582,33.586 18.518,0 33.584-15.066 33.584-33.586 0-18.517-15.066-33.582-33.584-33.582zm0,52.168c-10.246,0-18.582-8.337-18.582-18.586 0-10.246 8.336-18.582 18.582-18.582 10.247,0 18.584,8.336 18.584,18.582 1.42109e-14,10.249-8.337,18.586-18.584,18.586z"/>
    <path d="m153.017,60.085l-10.781-31.297v-21.288c0-4.142-3.358-7.5-7.5-7.5h-73.263c-4.142,0-7.5,3.358-7.5,7.5v21.288l-10.781,31.297c-0.271,0.786-0.409,1.611-0.409,2.442v126.182c0,4.142 3.358,7.5 7.5,7.5h95.643c4.142,0 7.5-3.358 7.5-7.5v-126.182c0-0.831-0.138-1.656-0.409-2.442zm-86.195-22.542h62.565l6.023,17.484h-74.611l6.023-17.484zm60.414-22.543v7.543h-58.263v-7.543h58.263zm-69.453,166.209v-111.182h80.643v111.182h-80.643z"/>
  </g>
</svg>
